<mxfile host="Electron" modified="2023-05-03T14:21:04.935Z" agent="Mozilla/5.0 (Windows NT 10.0; Win64; x64) AppleWebKit/537.36 (KHTML, like Gecko) draw.io/21.2.1 Chrome/112.0.5615.87 Electron/24.1.2 Safari/537.36" etag="9y3K1ah0hp8zwGjUYKCY" version="21.2.1" type="device">
  <diagram id="R2lEEEUBdFMjLlhIrx00" name="Page-1">
    <mxGraphModel dx="1622" dy="1512" grid="1" gridSize="10" guides="1" tooltips="1" connect="1" arrows="1" fold="1" page="1" pageScale="1" pageWidth="850" pageHeight="1100" math="0" shadow="0" extFonts="Permanent Marker^https://fonts.googleapis.com/css?family=Permanent+Marker">
      <root>
        <mxCell id="0" />
        <mxCell id="1" parent="0" />
        <mxCell id="TIXlhMu91rHj0SqQOW6h-40" value="m" style="edgeStyle=orthogonalEdgeStyle;rounded=0;orthogonalLoop=1;jettySize=auto;html=1;exitX=1;exitY=0.5;exitDx=0;exitDy=0;entryX=0;entryY=0.5;entryDx=0;entryDy=0;endArrow=none;endFill=0;" parent="1" target="TIXlhMu91rHj0SqQOW6h-2" edge="1">
          <mxGeometry relative="1" as="geometry">
            <mxPoint x="120" y="80" as="sourcePoint" />
          </mxGeometry>
        </mxCell>
        <mxCell id="TIXlhMu91rHj0SqQOW6h-42" style="edgeStyle=orthogonalEdgeStyle;rounded=0;orthogonalLoop=1;jettySize=auto;html=1;exitX=1;exitY=0.5;exitDx=0;exitDy=0;entryX=0;entryY=0.5;entryDx=0;entryDy=0;endArrow=none;endFill=0;" parent="1" source="TIXlhMu91rHj0SqQOW6h-2" edge="1">
          <mxGeometry relative="1" as="geometry">
            <mxPoint x="320" y="120" as="targetPoint" />
          </mxGeometry>
        </mxCell>
        <mxCell id="TIXlhMu91rHj0SqQOW6h-2" value="Reporta" style="shape=rhombus;perimeter=rhombusPerimeter;whiteSpace=wrap;html=1;align=center;" parent="1" vertex="1">
          <mxGeometry x="190" y="105" width="80" height="30" as="geometry" />
        </mxCell>
        <mxCell id="TIXlhMu91rHj0SqQOW6h-47" style="edgeStyle=orthogonalEdgeStyle;rounded=0;orthogonalLoop=1;jettySize=auto;html=1;entryX=0;entryY=0.5;entryDx=0;entryDy=0;endArrow=none;endFill=0;" parent="1" target="TIXlhMu91rHj0SqQOW6h-4" edge="1">
          <mxGeometry relative="1" as="geometry">
            <mxPoint x="400" y="120" as="sourcePoint" />
          </mxGeometry>
        </mxCell>
        <mxCell id="TIXlhMu91rHj0SqQOW6h-89" value="1" style="edgeLabel;html=1;align=center;verticalAlign=middle;resizable=0;points=[];" parent="TIXlhMu91rHj0SqQOW6h-47" vertex="1" connectable="0">
          <mxGeometry x="-0.7636" y="-2" relative="1" as="geometry">
            <mxPoint as="offset" />
          </mxGeometry>
        </mxCell>
        <mxCell id="TIXlhMu91rHj0SqQOW6h-52" style="edgeStyle=orthogonalEdgeStyle;rounded=0;orthogonalLoop=1;jettySize=auto;html=1;exitX=1;exitY=0.5;exitDx=0;exitDy=0;endArrow=none;endFill=0;" parent="1" source="TIXlhMu91rHj0SqQOW6h-4" target="TIXlhMu91rHj0SqQOW6h-51" edge="1">
          <mxGeometry relative="1" as="geometry" />
        </mxCell>
        <mxCell id="TIXlhMu91rHj0SqQOW6h-90" value="1" style="edgeLabel;html=1;align=center;verticalAlign=middle;resizable=0;points=[];" parent="TIXlhMu91rHj0SqQOW6h-52" vertex="1" connectable="0">
          <mxGeometry x="0.7286" relative="1" as="geometry">
            <mxPoint as="offset" />
          </mxGeometry>
        </mxCell>
        <mxCell id="TIXlhMu91rHj0SqQOW6h-4" value="&lt;font style=&quot;font-size: 7px;&quot;&gt;Visualiza reporte del&lt;/font&gt;" style="rhombus;whiteSpace=wrap;html=1;" parent="1" vertex="1">
          <mxGeometry x="510" y="100" width="70" height="40" as="geometry" />
        </mxCell>
        <mxCell id="TIXlhMu91rHj0SqQOW6h-5" style="edgeStyle=orthogonalEdgeStyle;rounded=0;orthogonalLoop=1;jettySize=auto;html=1;exitX=0.5;exitY=1;exitDx=0;exitDy=0;" parent="1" source="TIXlhMu91rHj0SqQOW6h-4" target="TIXlhMu91rHj0SqQOW6h-4" edge="1">
          <mxGeometry relative="1" as="geometry" />
        </mxCell>
        <mxCell id="TIXlhMu91rHj0SqQOW6h-44" style="edgeStyle=orthogonalEdgeStyle;rounded=0;orthogonalLoop=1;jettySize=auto;html=1;exitX=0;exitY=0.5;exitDx=0;exitDy=0;entryX=0.5;entryY=1;entryDx=0;entryDy=0;endArrow=none;endFill=0;" parent="1" source="TIXlhMu91rHj0SqQOW6h-53" target="TIXlhMu91rHj0SqQOW6h-8" edge="1">
          <mxGeometry relative="1" as="geometry">
            <mxPoint x="320" y="385" as="sourcePoint" />
          </mxGeometry>
        </mxCell>
        <mxCell id="TIXlhMu91rHj0SqQOW6h-79" value="m" style="edgeLabel;html=1;align=center;verticalAlign=middle;resizable=0;points=[];" parent="TIXlhMu91rHj0SqQOW6h-44" vertex="1" connectable="0">
          <mxGeometry x="-0.1619" relative="1" as="geometry">
            <mxPoint as="offset" />
          </mxGeometry>
        </mxCell>
        <mxCell id="TIXlhMu91rHj0SqQOW6h-45" style="edgeStyle=orthogonalEdgeStyle;rounded=0;orthogonalLoop=1;jettySize=auto;html=1;exitX=1;exitY=0.5;exitDx=0;exitDy=0;entryX=0.5;entryY=1;entryDx=0;entryDy=0;endArrow=none;endFill=0;" parent="1" source="TIXlhMu91rHj0SqQOW6h-53" target="TIXlhMu91rHj0SqQOW6h-14" edge="1">
          <mxGeometry relative="1" as="geometry">
            <mxPoint x="415" y="385" as="sourcePoint" />
          </mxGeometry>
        </mxCell>
        <mxCell id="TIXlhMu91rHj0SqQOW6h-80" value="m" style="edgeLabel;html=1;align=center;verticalAlign=middle;resizable=0;points=[];" parent="TIXlhMu91rHj0SqQOW6h-45" vertex="1" connectable="0">
          <mxGeometry x="-0.2545" relative="1" as="geometry">
            <mxPoint as="offset" />
          </mxGeometry>
        </mxCell>
        <mxCell id="TIXlhMu91rHj0SqQOW6h-43" style="edgeStyle=orthogonalEdgeStyle;rounded=0;orthogonalLoop=1;jettySize=auto;html=1;exitX=0.5;exitY=0;exitDx=0;exitDy=0;entryX=0;entryY=1;entryDx=0;entryDy=0;endArrow=none;endFill=0;" parent="1" source="TIXlhMu91rHj0SqQOW6h-8" edge="1">
          <mxGeometry relative="1" as="geometry">
            <mxPoint x="331.7157287525381" y="127.07106781186553" as="targetPoint" />
          </mxGeometry>
        </mxCell>
        <mxCell id="TIXlhMu91rHj0SqQOW6h-78" value="n" style="edgeLabel;html=1;align=center;verticalAlign=middle;resizable=0;points=[];" parent="TIXlhMu91rHj0SqQOW6h-43" vertex="1" connectable="0">
          <mxGeometry x="0.7438" y="-1" relative="1" as="geometry">
            <mxPoint as="offset" />
          </mxGeometry>
        </mxCell>
        <mxCell id="TIXlhMu91rHj0SqQOW6h-8" value="Recibe reporte del" style="rhombus;whiteSpace=wrap;html=1;" parent="1" vertex="1">
          <mxGeometry x="240" y="270" width="80" height="60" as="geometry" />
        </mxCell>
        <mxCell id="TIXlhMu91rHj0SqQOW6h-41" style="edgeStyle=orthogonalEdgeStyle;rounded=0;orthogonalLoop=1;jettySize=auto;html=1;entryX=0;entryY=0.5;entryDx=0;entryDy=0;endArrow=none;endFill=0;exitX=1;exitY=0.5;exitDx=0;exitDy=0;" parent="1" source="TIXlhMu91rHj0SqQOW6h-48" target="TIXlhMu91rHj0SqQOW6h-2" edge="1">
          <mxGeometry relative="1" as="geometry">
            <mxPoint x="140" y="160" as="sourcePoint" />
          </mxGeometry>
        </mxCell>
        <mxCell id="TIXlhMu91rHj0SqQOW6h-82" value="m" style="edgeLabel;html=1;align=center;verticalAlign=middle;resizable=0;points=[];" parent="TIXlhMu91rHj0SqQOW6h-41" vertex="1" connectable="0">
          <mxGeometry x="-0.2727" y="-1" relative="1" as="geometry">
            <mxPoint as="offset" />
          </mxGeometry>
        </mxCell>
        <mxCell id="TIXlhMu91rHj0SqQOW6h-66" style="edgeStyle=orthogonalEdgeStyle;rounded=0;orthogonalLoop=1;jettySize=auto;html=1;exitX=1;exitY=0.5;exitDx=0;exitDy=0;entryX=0;entryY=0.5;entryDx=0;entryDy=0;endArrow=none;endFill=0;" parent="1" source="TIXlhMu91rHj0SqQOW6h-11" target="TIXlhMu91rHj0SqQOW6h-17" edge="1">
          <mxGeometry relative="1" as="geometry" />
        </mxCell>
        <mxCell id="TIXlhMu91rHj0SqQOW6h-73" value="1" style="edgeLabel;html=1;align=center;verticalAlign=middle;resizable=0;points=[];" parent="TIXlhMu91rHj0SqQOW6h-66" vertex="1" connectable="0">
          <mxGeometry x="-0.7455" y="-1" relative="1" as="geometry">
            <mxPoint as="offset" />
          </mxGeometry>
        </mxCell>
        <mxCell id="TIXlhMu91rHj0SqQOW6h-83" style="edgeStyle=orthogonalEdgeStyle;rounded=0;orthogonalLoop=1;jettySize=auto;html=1;exitX=0.5;exitY=1;exitDx=0;exitDy=0;entryX=0.5;entryY=0;entryDx=0;entryDy=0;endArrow=none;endFill=0;" parent="1" source="TIXlhMu91rHj0SqQOW6h-11" target="TIXlhMu91rHj0SqQOW6h-13" edge="1">
          <mxGeometry relative="1" as="geometry" />
        </mxCell>
        <mxCell id="TIXlhMu91rHj0SqQOW6h-85" value="1" style="edgeLabel;html=1;align=center;verticalAlign=middle;resizable=0;points=[];" parent="TIXlhMu91rHj0SqQOW6h-83" vertex="1" connectable="0">
          <mxGeometry x="-0.2889" y="1" relative="1" as="geometry">
            <mxPoint as="offset" />
          </mxGeometry>
        </mxCell>
        <mxCell id="TIXlhMu91rHj0SqQOW6h-11" value="Tutot Escolar" style="ellipse;whiteSpace=wrap;html=1;" parent="1" vertex="1">
          <mxGeometry x="160" y="-230" width="120" height="30" as="geometry" />
        </mxCell>
        <mxCell id="TIXlhMu91rHj0SqQOW6h-68" style="edgeStyle=orthogonalEdgeStyle;rounded=0;orthogonalLoop=1;jettySize=auto;html=1;exitX=0.5;exitY=0;exitDx=0;exitDy=0;entryX=0;entryY=0.5;entryDx=0;entryDy=0;endArrow=none;endFill=0;" parent="1" source="TIXlhMu91rHj0SqQOW6h-12" target="TIXlhMu91rHj0SqQOW6h-11" edge="1">
          <mxGeometry relative="1" as="geometry" />
        </mxCell>
        <mxCell id="TIXlhMu91rHj0SqQOW6h-75" value="1" style="edgeLabel;html=1;align=center;verticalAlign=middle;resizable=0;points=[];" parent="TIXlhMu91rHj0SqQOW6h-68" vertex="1" connectable="0">
          <mxGeometry x="0.7857" y="2" relative="1" as="geometry">
            <mxPoint as="offset" />
          </mxGeometry>
        </mxCell>
        <mxCell id="TIXlhMu91rHj0SqQOW6h-12" value="Es" style="rhombus;whiteSpace=wrap;html=1;" parent="1" vertex="1">
          <mxGeometry x="60" y="-150" width="50" height="30" as="geometry" />
        </mxCell>
        <mxCell id="TIXlhMu91rHj0SqQOW6h-58" style="edgeStyle=orthogonalEdgeStyle;rounded=0;orthogonalLoop=1;jettySize=auto;html=1;exitX=0.5;exitY=1;exitDx=0;exitDy=0;entryX=0.1;entryY=0.05;entryDx=0;entryDy=0;entryPerimeter=0;endArrow=none;endFill=0;" parent="1" source="TIXlhMu91rHj0SqQOW6h-13" target="TIXlhMu91rHj0SqQOW6h-50" edge="1">
          <mxGeometry relative="1" as="geometry">
            <Array as="points">
              <mxPoint x="220" y="100" />
              <mxPoint x="320" y="100" />
              <mxPoint x="320" y="106" />
            </Array>
          </mxGeometry>
        </mxCell>
        <mxCell id="TIXlhMu91rHj0SqQOW6h-77" value="n" style="edgeLabel;html=1;align=center;verticalAlign=middle;resizable=0;points=[];" parent="TIXlhMu91rHj0SqQOW6h-58" vertex="1" connectable="0">
          <mxGeometry x="0.7771" y="4" relative="1" as="geometry">
            <mxPoint as="offset" />
          </mxGeometry>
        </mxCell>
        <mxCell id="TIXlhMu91rHj0SqQOW6h-86" value="m" style="edgeLabel;html=1;align=center;verticalAlign=middle;resizable=0;points=[];" parent="TIXlhMu91rHj0SqQOW6h-58" vertex="1" connectable="0">
          <mxGeometry x="0.7445" y="1" relative="1" as="geometry">
            <mxPoint as="offset" />
          </mxGeometry>
        </mxCell>
        <mxCell id="TIXlhMu91rHj0SqQOW6h-13" value="Revisa Reporte" style="rhombus;whiteSpace=wrap;html=1;" parent="1" vertex="1">
          <mxGeometry x="180" y="-110" width="80" height="50" as="geometry" />
        </mxCell>
        <mxCell id="TIXlhMu91rHj0SqQOW6h-46" style="edgeStyle=orthogonalEdgeStyle;rounded=0;orthogonalLoop=1;jettySize=auto;html=1;exitX=0.5;exitY=0;exitDx=0;exitDy=0;entryX=1;entryY=1;entryDx=0;entryDy=0;endArrow=none;endFill=0;" parent="1" source="TIXlhMu91rHj0SqQOW6h-14" edge="1">
          <mxGeometry relative="1" as="geometry">
            <mxPoint x="388.2842712474619" y="127.07106781186553" as="targetPoint" />
          </mxGeometry>
        </mxCell>
        <mxCell id="TIXlhMu91rHj0SqQOW6h-81" value="n" style="edgeLabel;html=1;align=center;verticalAlign=middle;resizable=0;points=[];" parent="TIXlhMu91rHj0SqQOW6h-46" vertex="1" connectable="0">
          <mxGeometry x="0.7491" relative="1" as="geometry">
            <mxPoint as="offset" />
          </mxGeometry>
        </mxCell>
        <mxCell id="TIXlhMu91rHj0SqQOW6h-14" value="Revisa historial" style="rhombus;whiteSpace=wrap;html=1;" parent="1" vertex="1">
          <mxGeometry x="415" y="275" width="80" height="50" as="geometry" />
        </mxCell>
        <mxCell id="TIXlhMu91rHj0SqQOW6h-64" style="edgeStyle=orthogonalEdgeStyle;rounded=0;orthogonalLoop=1;jettySize=auto;html=1;exitX=1;exitY=0.5;exitDx=0;exitDy=0;entryX=0;entryY=0.5;entryDx=0;entryDy=0;endArrow=none;endFill=0;" parent="1" source="TIXlhMu91rHj0SqQOW6h-15" target="TIXlhMu91rHj0SqQOW6h-161" edge="1">
          <mxGeometry relative="1" as="geometry">
            <mxPoint x="768.5199958114194" y="-133.0189986387113" as="targetPoint" />
            <Array as="points">
              <mxPoint x="740" y="-133" />
              <mxPoint x="780" y="-133" />
            </Array>
          </mxGeometry>
        </mxCell>
        <mxCell id="TIXlhMu91rHj0SqQOW6h-88" value="1" style="edgeLabel;html=1;align=center;verticalAlign=middle;resizable=0;points=[];" parent="TIXlhMu91rHj0SqQOW6h-64" vertex="1" connectable="0">
          <mxGeometry x="0.3271" relative="1" as="geometry">
            <mxPoint as="offset" />
          </mxGeometry>
        </mxCell>
        <mxCell id="TIXlhMu91rHj0SqQOW6h-15" value="Tiene" style="rhombus;whiteSpace=wrap;html=1;" parent="1" vertex="1">
          <mxGeometry x="695" y="-32.5" width="45" height="45" as="geometry" />
        </mxCell>
        <mxCell id="TIXlhMu91rHj0SqQOW6h-65" style="edgeStyle=orthogonalEdgeStyle;rounded=0;orthogonalLoop=1;jettySize=auto;html=1;exitX=1;exitY=0.5;exitDx=0;exitDy=0;entryX=0;entryY=0.25;entryDx=0;entryDy=0;endArrow=none;endFill=0;" parent="1" source="TIXlhMu91rHj0SqQOW6h-17" target="TIXlhMu91rHj0SqQOW6h-161" edge="1">
          <mxGeometry relative="1" as="geometry">
            <mxPoint x="768.5199958114194" y="-146.9810013612887" as="targetPoint" />
          </mxGeometry>
        </mxCell>
        <mxCell id="TIXlhMu91rHj0SqQOW6h-71" value="1" style="edgeLabel;html=1;align=center;verticalAlign=middle;resizable=0;points=[];" parent="TIXlhMu91rHj0SqQOW6h-65" vertex="1" connectable="0">
          <mxGeometry x="0.8032" y="-1" relative="1" as="geometry">
            <mxPoint as="offset" />
          </mxGeometry>
        </mxCell>
        <mxCell id="TIXlhMu91rHj0SqQOW6h-17" value="Revisa historial" style="rhombus;whiteSpace=wrap;html=1;" parent="1" vertex="1">
          <mxGeometry x="380" y="-230" width="80" height="50" as="geometry" />
        </mxCell>
        <mxCell id="TIXlhMu91rHj0SqQOW6h-48" value="Perfecto" style="whiteSpace=wrap;html=1;align=center;" parent="1" vertex="1">
          <mxGeometry x="60" y="150" width="60" height="20" as="geometry" />
        </mxCell>
        <mxCell id="TIXlhMu91rHj0SqQOW6h-67" style="edgeStyle=orthogonalEdgeStyle;rounded=0;orthogonalLoop=1;jettySize=auto;html=1;exitX=1;exitY=0;exitDx=0;exitDy=0;entryX=0.5;entryY=1;entryDx=0;entryDy=0;endArrow=none;endFill=0;" parent="1" source="TIXlhMu91rHj0SqQOW6h-49" target="TIXlhMu91rHj0SqQOW6h-12" edge="1">
          <mxGeometry relative="1" as="geometry" />
        </mxCell>
        <mxCell id="TIXlhMu91rHj0SqQOW6h-74" value="1" style="edgeLabel;html=1;align=center;verticalAlign=middle;resizable=0;points=[];" parent="TIXlhMu91rHj0SqQOW6h-67" vertex="1" connectable="0">
          <mxGeometry x="-0.8133" relative="1" as="geometry">
            <mxPoint as="offset" />
          </mxGeometry>
        </mxCell>
        <mxCell id="TIXlhMu91rHj0SqQOW6h-49" value="Docente" style="whiteSpace=wrap;html=1;align=center;" parent="1" vertex="1">
          <mxGeometry x="60" y="70" width="60" height="20" as="geometry" />
        </mxCell>
        <mxCell id="TIXlhMu91rHj0SqQOW6h-59" style="edgeStyle=orthogonalEdgeStyle;rounded=0;orthogonalLoop=1;jettySize=auto;html=1;exitX=1;exitY=0;exitDx=0;exitDy=0;entryX=0.5;entryY=1;entryDx=0;entryDy=0;endArrow=none;endFill=0;" parent="1" source="TIXlhMu91rHj0SqQOW6h-50" target="TIXlhMu91rHj0SqQOW6h-15" edge="1">
          <mxGeometry relative="1" as="geometry">
            <mxPoint x="500" y="-80" as="targetPoint" />
            <Array as="points">
              <mxPoint x="400" y="90" />
              <mxPoint x="590" y="90" />
              <mxPoint x="590" y="13" />
            </Array>
          </mxGeometry>
        </mxCell>
        <mxCell id="TIXlhMu91rHj0SqQOW6h-87" value="1" style="edgeLabel;html=1;align=center;verticalAlign=middle;resizable=0;points=[];" parent="TIXlhMu91rHj0SqQOW6h-59" vertex="1" connectable="0">
          <mxGeometry x="-0.8847" y="1" relative="1" as="geometry">
            <mxPoint as="offset" />
          </mxGeometry>
        </mxCell>
        <mxCell id="TIXlhMu91rHj0SqQOW6h-50" value="Alumno" style="whiteSpace=wrap;html=1;align=center;" parent="1" vertex="1">
          <mxGeometry x="320" y="105" width="80" height="20" as="geometry" />
        </mxCell>
        <mxCell id="TIXlhMu91rHj0SqQOW6h-51" value="Padre de familia" style="whiteSpace=wrap;html=1;align=center;" parent="1" vertex="1">
          <mxGeometry x="720" y="110" width="100" height="20" as="geometry" />
        </mxCell>
        <mxCell id="TIXlhMu91rHj0SqQOW6h-144" style="edgeStyle=orthogonalEdgeStyle;rounded=0;orthogonalLoop=1;jettySize=auto;html=1;exitX=1;exitY=0;exitDx=0;exitDy=0;entryX=0.5;entryY=1;entryDx=0;entryDy=0;endArrow=none;endFill=0;" parent="1" source="TIXlhMu91rHj0SqQOW6h-53" target="TIXlhMu91rHj0SqQOW6h-142" edge="1">
          <mxGeometry relative="1" as="geometry" />
        </mxCell>
        <mxCell id="TIXlhMu91rHj0SqQOW6h-146" value="1" style="edgeLabel;html=1;align=center;verticalAlign=middle;resizable=0;points=[];" parent="TIXlhMu91rHj0SqQOW6h-144" vertex="1" connectable="0">
          <mxGeometry x="-0.7449" y="-1" relative="1" as="geometry">
            <mxPoint x="-1" as="offset" />
          </mxGeometry>
        </mxCell>
        <mxCell id="TIXlhMu91rHj0SqQOW6h-148" style="edgeStyle=orthogonalEdgeStyle;rounded=0;orthogonalLoop=1;jettySize=auto;html=1;exitX=0.5;exitY=0;exitDx=0;exitDy=0;entryX=0;entryY=0.5;entryDx=0;entryDy=0;endArrow=none;endFill=0;" parent="1" source="TIXlhMu91rHj0SqQOW6h-53" target="TIXlhMu91rHj0SqQOW6h-143" edge="1">
          <mxGeometry relative="1" as="geometry">
            <Array as="points">
              <mxPoint x="368" y="277" />
            </Array>
          </mxGeometry>
        </mxCell>
        <mxCell id="TIXlhMu91rHj0SqQOW6h-151" value="m" style="edgeLabel;html=1;align=center;verticalAlign=middle;resizable=0;points=[];" parent="TIXlhMu91rHj0SqQOW6h-148" vertex="1" connectable="0">
          <mxGeometry x="-0.8715" y="1" relative="1" as="geometry">
            <mxPoint as="offset" />
          </mxGeometry>
        </mxCell>
        <mxCell id="TIXlhMu91rHj0SqQOW6h-53" value="Orientador" style="whiteSpace=wrap;html=1;align=center;" parent="1" vertex="1">
          <mxGeometry x="335" y="370" width="65" height="20" as="geometry" />
        </mxCell>
        <mxCell id="TIXlhMu91rHj0SqQOW6h-99" style="edgeStyle=orthogonalEdgeStyle;rounded=0;orthogonalLoop=1;jettySize=auto;html=1;exitX=0.5;exitY=1;exitDx=0;exitDy=0;entryX=0;entryY=0;entryDx=0;entryDy=0;endArrow=none;endFill=0;" parent="1" source="TIXlhMu91rHj0SqQOW6h-91" target="TIXlhMu91rHj0SqQOW6h-49" edge="1">
          <mxGeometry relative="1" as="geometry" />
        </mxCell>
        <mxCell id="TIXlhMu91rHj0SqQOW6h-91" value="NOMBRE" style="ellipse;whiteSpace=wrap;html=1;align=center;" parent="1" vertex="1">
          <mxGeometry x="-10" y="-20" width="100" height="20" as="geometry" />
        </mxCell>
        <mxCell id="TIXlhMu91rHj0SqQOW6h-100" style="edgeStyle=orthogonalEdgeStyle;rounded=0;orthogonalLoop=1;jettySize=auto;html=1;exitX=1;exitY=1;exitDx=0;exitDy=0;entryX=0;entryY=0.5;entryDx=0;entryDy=0;endArrow=none;endFill=0;" parent="1" source="TIXlhMu91rHj0SqQOW6h-92" target="TIXlhMu91rHj0SqQOW6h-49" edge="1">
          <mxGeometry relative="1" as="geometry" />
        </mxCell>
        <mxCell id="TIXlhMu91rHj0SqQOW6h-92" value="APE2" style="ellipse;whiteSpace=wrap;html=1;align=center;" parent="1" vertex="1">
          <mxGeometry x="-60" y="-15" width="50" height="20" as="geometry" />
        </mxCell>
        <mxCell id="TIXlhMu91rHj0SqQOW6h-101" style="edgeStyle=orthogonalEdgeStyle;rounded=0;orthogonalLoop=1;jettySize=auto;html=1;exitX=1;exitY=0.5;exitDx=0;exitDy=0;endArrow=none;endFill=0;" parent="1" source="TIXlhMu91rHj0SqQOW6h-93" edge="1">
          <mxGeometry relative="1" as="geometry">
            <mxPoint x="30" y="30" as="targetPoint" />
          </mxGeometry>
        </mxCell>
        <mxCell id="TIXlhMu91rHj0SqQOW6h-93" value="APE1" style="ellipse;whiteSpace=wrap;html=1;align=center;" parent="1" vertex="1">
          <mxGeometry x="-70" y="20" width="70" height="20" as="geometry" />
        </mxCell>
        <mxCell id="TIXlhMu91rHj0SqQOW6h-94" style="edgeStyle=orthogonalEdgeStyle;rounded=0;orthogonalLoop=1;jettySize=auto;html=1;exitX=0.5;exitY=1;exitDx=0;exitDy=0;" parent="1" source="TIXlhMu91rHj0SqQOW6h-91" target="TIXlhMu91rHj0SqQOW6h-91" edge="1">
          <mxGeometry relative="1" as="geometry" />
        </mxCell>
        <mxCell id="TIXlhMu91rHj0SqQOW6h-102" style="edgeStyle=orthogonalEdgeStyle;rounded=0;orthogonalLoop=1;jettySize=auto;html=1;exitX=1;exitY=1;exitDx=0;exitDy=0;entryX=0;entryY=0.75;entryDx=0;entryDy=0;endArrow=none;endFill=0;" parent="1" source="TIXlhMu91rHj0SqQOW6h-95" target="TIXlhMu91rHj0SqQOW6h-49" edge="1">
          <mxGeometry relative="1" as="geometry" />
        </mxCell>
        <mxCell id="TIXlhMu91rHj0SqQOW6h-95" value="CLAVE_DOCENTE" style="ellipse;whiteSpace=wrap;html=1;align=center;fontStyle=4;" parent="1" vertex="1">
          <mxGeometry x="-85" y="50" width="100" height="30" as="geometry" />
        </mxCell>
        <mxCell id="TIXlhMu91rHj0SqQOW6h-103" style="edgeStyle=orthogonalEdgeStyle;rounded=0;orthogonalLoop=1;jettySize=auto;html=1;exitX=1;exitY=0.5;exitDx=0;exitDy=0;entryX=0;entryY=1;entryDx=0;entryDy=0;endArrow=none;endFill=0;" parent="1" source="TIXlhMu91rHj0SqQOW6h-96" target="TIXlhMu91rHj0SqQOW6h-49" edge="1">
          <mxGeometry relative="1" as="geometry" />
        </mxCell>
        <mxCell id="TIXlhMu91rHj0SqQOW6h-96" value="correo" style="ellipse;whiteSpace=wrap;html=1;align=center;" parent="1" vertex="1">
          <mxGeometry x="-65" y="90" width="60" height="20" as="geometry" />
        </mxCell>
        <mxCell id="TIXlhMu91rHj0SqQOW6h-132" style="edgeStyle=orthogonalEdgeStyle;rounded=0;orthogonalLoop=1;jettySize=auto;html=1;exitX=0.5;exitY=1;exitDx=0;exitDy=0;entryX=0;entryY=0;entryDx=0;entryDy=0;endArrow=none;endFill=0;" parent="1" source="TIXlhMu91rHj0SqQOW6h-105" target="TIXlhMu91rHj0SqQOW6h-51" edge="1">
          <mxGeometry relative="1" as="geometry" />
        </mxCell>
        <mxCell id="TIXlhMu91rHj0SqQOW6h-105" value="NOMBRE" style="ellipse;whiteSpace=wrap;html=1;align=center;" parent="1" vertex="1">
          <mxGeometry x="640" y="75" width="100" height="20" as="geometry" />
        </mxCell>
        <mxCell id="TIXlhMu91rHj0SqQOW6h-128" style="edgeStyle=orthogonalEdgeStyle;rounded=0;orthogonalLoop=1;jettySize=auto;html=1;exitX=0.5;exitY=0;exitDx=0;exitDy=0;entryX=0;entryY=1;entryDx=0;entryDy=0;endArrow=none;endFill=0;" parent="1" source="TIXlhMu91rHj0SqQOW6h-106" target="TIXlhMu91rHj0SqQOW6h-53" edge="1">
          <mxGeometry relative="1" as="geometry" />
        </mxCell>
        <mxCell id="TIXlhMu91rHj0SqQOW6h-106" value="NOMBRE" style="ellipse;whiteSpace=wrap;html=1;align=center;" parent="1" vertex="1">
          <mxGeometry x="200" y="420" width="100" height="20" as="geometry" />
        </mxCell>
        <mxCell id="TIXlhMu91rHj0SqQOW6h-122" style="edgeStyle=orthogonalEdgeStyle;rounded=0;orthogonalLoop=1;jettySize=auto;html=1;exitX=0.5;exitY=0;exitDx=0;exitDy=0;entryX=0.5;entryY=1;entryDx=0;entryDy=0;endArrow=none;endFill=0;" parent="1" source="TIXlhMu91rHj0SqQOW6h-107" target="TIXlhMu91rHj0SqQOW6h-48" edge="1">
          <mxGeometry relative="1" as="geometry" />
        </mxCell>
        <mxCell id="TIXlhMu91rHj0SqQOW6h-107" value="NOMBRE" style="ellipse;whiteSpace=wrap;html=1;align=center;" parent="1" vertex="1">
          <mxGeometry x="60" y="190" width="100" height="20" as="geometry" />
        </mxCell>
        <mxCell id="TIXlhMu91rHj0SqQOW6h-159" style="edgeStyle=orthogonalEdgeStyle;rounded=0;orthogonalLoop=1;jettySize=auto;html=1;exitX=0;exitY=0.5;exitDx=0;exitDy=0;entryX=0.837;entryY=0.017;entryDx=0;entryDy=0;entryPerimeter=0;endArrow=none;endFill=0;" parent="1" source="TIXlhMu91rHj0SqQOW6h-108" target="TIXlhMu91rHj0SqQOW6h-50" edge="1">
          <mxGeometry relative="1" as="geometry" />
        </mxCell>
        <mxCell id="TIXlhMu91rHj0SqQOW6h-108" value="NOMBRE" style="ellipse;whiteSpace=wrap;html=1;align=center;" parent="1" vertex="1">
          <mxGeometry x="425" y="50" width="100" height="20" as="geometry" />
        </mxCell>
        <mxCell id="TIXlhMu91rHj0SqQOW6h-156" style="edgeStyle=orthogonalEdgeStyle;rounded=0;orthogonalLoop=1;jettySize=auto;html=1;exitX=1;exitY=1;exitDx=0;exitDy=0;entryX=0.152;entryY=0.054;entryDx=0;entryDy=0;entryPerimeter=0;endArrow=none;endFill=0;" parent="1" source="TIXlhMu91rHj0SqQOW6h-109" target="TIXlhMu91rHj0SqQOW6h-50" edge="1">
          <mxGeometry relative="1" as="geometry" />
        </mxCell>
        <mxCell id="TIXlhMu91rHj0SqQOW6h-109" value="APE2" style="ellipse;whiteSpace=wrap;html=1;align=center;" parent="1" vertex="1">
          <mxGeometry x="250" y="55" width="50" height="20" as="geometry" />
        </mxCell>
        <mxCell id="TIXlhMu91rHj0SqQOW6h-133" style="edgeStyle=orthogonalEdgeStyle;rounded=0;orthogonalLoop=1;jettySize=auto;html=1;exitX=0.5;exitY=1;exitDx=0;exitDy=0;entryX=0.5;entryY=0;entryDx=0;entryDy=0;endArrow=none;endFill=0;" parent="1" source="TIXlhMu91rHj0SqQOW6h-111" target="TIXlhMu91rHj0SqQOW6h-51" edge="1">
          <mxGeometry relative="1" as="geometry" />
        </mxCell>
        <mxCell id="TIXlhMu91rHj0SqQOW6h-111" value="APE2" style="ellipse;whiteSpace=wrap;html=1;align=center;" parent="1" vertex="1">
          <mxGeometry x="745" y="75" width="50" height="20" as="geometry" />
        </mxCell>
        <mxCell id="TIXlhMu91rHj0SqQOW6h-130" style="edgeStyle=orthogonalEdgeStyle;rounded=0;orthogonalLoop=1;jettySize=auto;html=1;exitX=0;exitY=0;exitDx=0;exitDy=0;entryX=0.5;entryY=1;entryDx=0;entryDy=0;endArrow=none;endFill=0;" parent="1" source="TIXlhMu91rHj0SqQOW6h-112" target="TIXlhMu91rHj0SqQOW6h-53" edge="1">
          <mxGeometry relative="1" as="geometry" />
        </mxCell>
        <mxCell id="TIXlhMu91rHj0SqQOW6h-112" value="APE2" style="ellipse;whiteSpace=wrap;html=1;align=center;" parent="1" vertex="1">
          <mxGeometry x="395" y="420" width="50" height="20" as="geometry" />
        </mxCell>
        <mxCell id="TIXlhMu91rHj0SqQOW6h-125" style="edgeStyle=orthogonalEdgeStyle;rounded=0;orthogonalLoop=1;jettySize=auto;html=1;exitX=0;exitY=0.5;exitDx=0;exitDy=0;endArrow=none;endFill=0;" parent="1" source="TIXlhMu91rHj0SqQOW6h-113" edge="1">
          <mxGeometry relative="1" as="geometry">
            <mxPoint x="160" y="200" as="targetPoint" />
          </mxGeometry>
        </mxCell>
        <mxCell id="TIXlhMu91rHj0SqQOW6h-113" value="APE2" style="ellipse;whiteSpace=wrap;html=1;align=center;" parent="1" vertex="1">
          <mxGeometry x="190" y="150" width="50" height="20" as="geometry" />
        </mxCell>
        <mxCell id="TIXlhMu91rHj0SqQOW6h-134" style="edgeStyle=orthogonalEdgeStyle;rounded=0;orthogonalLoop=1;jettySize=auto;html=1;exitX=0.5;exitY=1;exitDx=0;exitDy=0;entryX=0.877;entryY=-0.15;entryDx=0;entryDy=0;entryPerimeter=0;endArrow=none;endFill=0;" parent="1" source="TIXlhMu91rHj0SqQOW6h-115" target="TIXlhMu91rHj0SqQOW6h-51" edge="1">
          <mxGeometry relative="1" as="geometry" />
        </mxCell>
        <mxCell id="TIXlhMu91rHj0SqQOW6h-115" value="APE1" style="ellipse;whiteSpace=wrap;html=1;align=center;" parent="1" vertex="1">
          <mxGeometry x="810" y="75" width="70" height="20" as="geometry" />
        </mxCell>
        <mxCell id="TIXlhMu91rHj0SqQOW6h-129" style="edgeStyle=orthogonalEdgeStyle;rounded=0;orthogonalLoop=1;jettySize=auto;html=1;exitX=0.5;exitY=0;exitDx=0;exitDy=0;entryX=0.25;entryY=1;entryDx=0;entryDy=0;endArrow=none;endFill=0;" parent="1" source="TIXlhMu91rHj0SqQOW6h-116" target="TIXlhMu91rHj0SqQOW6h-53" edge="1">
          <mxGeometry relative="1" as="geometry" />
        </mxCell>
        <mxCell id="TIXlhMu91rHj0SqQOW6h-116" value="APE1" style="ellipse;whiteSpace=wrap;html=1;align=center;" parent="1" vertex="1">
          <mxGeometry x="310" y="420" width="70" height="20" as="geometry" />
        </mxCell>
        <mxCell id="TIXlhMu91rHj0SqQOW6h-158" style="edgeStyle=orthogonalEdgeStyle;rounded=0;orthogonalLoop=1;jettySize=auto;html=1;exitX=0;exitY=1;exitDx=0;exitDy=0;entryX=0.5;entryY=0;entryDx=0;entryDy=0;endArrow=none;endFill=0;" parent="1" source="TIXlhMu91rHj0SqQOW6h-117" target="TIXlhMu91rHj0SqQOW6h-50" edge="1">
          <mxGeometry relative="1" as="geometry" />
        </mxCell>
        <mxCell id="TIXlhMu91rHj0SqQOW6h-117" value="APE1" style="ellipse;whiteSpace=wrap;html=1;align=center;" parent="1" vertex="1">
          <mxGeometry x="385" y="12.5" width="70" height="20" as="geometry" />
        </mxCell>
        <mxCell id="TIXlhMu91rHj0SqQOW6h-124" style="edgeStyle=orthogonalEdgeStyle;rounded=0;orthogonalLoop=1;jettySize=auto;html=1;exitX=0;exitY=0;exitDx=0;exitDy=0;entryX=1;entryY=0.75;entryDx=0;entryDy=0;endArrow=none;endFill=0;" parent="1" source="TIXlhMu91rHj0SqQOW6h-118" target="TIXlhMu91rHj0SqQOW6h-48" edge="1">
          <mxGeometry relative="1" as="geometry" />
        </mxCell>
        <mxCell id="TIXlhMu91rHj0SqQOW6h-118" value="APE1" style="ellipse;whiteSpace=wrap;html=1;align=center;" parent="1" vertex="1">
          <mxGeometry x="170" y="190" width="70" height="20" as="geometry" />
        </mxCell>
        <mxCell id="TIXlhMu91rHj0SqQOW6h-121" style="edgeStyle=orthogonalEdgeStyle;rounded=0;orthogonalLoop=1;jettySize=auto;html=1;exitX=0.5;exitY=0;exitDx=0;exitDy=0;entryX=0;entryY=0.5;entryDx=0;entryDy=0;endArrow=none;endFill=0;" parent="1" source="TIXlhMu91rHj0SqQOW6h-120" target="TIXlhMu91rHj0SqQOW6h-48" edge="1">
          <mxGeometry relative="1" as="geometry" />
        </mxCell>
        <mxCell id="TIXlhMu91rHj0SqQOW6h-120" value="Clave_trabajo" style="ellipse;whiteSpace=wrap;html=1;align=center;fontStyle=4;" parent="1" vertex="1">
          <mxGeometry x="-40" y="190" width="90" height="20" as="geometry" />
        </mxCell>
        <mxCell id="TIXlhMu91rHj0SqQOW6h-131" style="edgeStyle=orthogonalEdgeStyle;rounded=0;orthogonalLoop=1;jettySize=auto;html=1;exitX=0;exitY=0;exitDx=0;exitDy=0;entryX=1;entryY=0.75;entryDx=0;entryDy=0;endArrow=none;endFill=0;" parent="1" source="TIXlhMu91rHj0SqQOW6h-127" target="TIXlhMu91rHj0SqQOW6h-53" edge="1">
          <mxGeometry relative="1" as="geometry" />
        </mxCell>
        <mxCell id="TIXlhMu91rHj0SqQOW6h-127" value="Clave_trabajo" style="ellipse;whiteSpace=wrap;html=1;align=center;fontStyle=4;" parent="1" vertex="1">
          <mxGeometry x="450" y="420" width="100" height="20" as="geometry" />
        </mxCell>
        <mxCell id="TIXlhMu91rHj0SqQOW6h-136" style="edgeStyle=orthogonalEdgeStyle;rounded=0;orthogonalLoop=1;jettySize=auto;html=1;exitX=0.5;exitY=0;exitDx=0;exitDy=0;entryX=0.07;entryY=1.083;entryDx=0;entryDy=0;entryPerimeter=0;endArrow=none;endFill=0;" parent="1" source="TIXlhMu91rHj0SqQOW6h-135" target="TIXlhMu91rHj0SqQOW6h-51" edge="1">
          <mxGeometry relative="1" as="geometry" />
        </mxCell>
        <mxCell id="TIXlhMu91rHj0SqQOW6h-135" value="Clave_padre" style="ellipse;whiteSpace=wrap;html=1;align=center;fontStyle=4;" parent="1" vertex="1">
          <mxGeometry x="660" y="170" width="80" height="20" as="geometry" />
        </mxCell>
        <mxCell id="TIXlhMu91rHj0SqQOW6h-138" style="edgeStyle=orthogonalEdgeStyle;rounded=0;orthogonalLoop=1;jettySize=auto;html=1;entryX=0.317;entryY=0.983;entryDx=0;entryDy=0;entryPerimeter=0;endArrow=none;endFill=0;" parent="1" source="TIXlhMu91rHj0SqQOW6h-137" target="TIXlhMu91rHj0SqQOW6h-51" edge="1">
          <mxGeometry relative="1" as="geometry" />
        </mxCell>
        <mxCell id="TIXlhMu91rHj0SqQOW6h-137" value="Dirección" style="ellipse;shape=doubleEllipse;margin=3;whiteSpace=wrap;html=1;align=center;" parent="1" vertex="1">
          <mxGeometry x="745" y="170" width="80" height="20" as="geometry" />
        </mxCell>
        <mxCell id="TIXlhMu91rHj0SqQOW6h-141" style="edgeStyle=orthogonalEdgeStyle;rounded=0;orthogonalLoop=1;jettySize=auto;html=1;exitX=0;exitY=0;exitDx=0;exitDy=0;entryX=0.937;entryY=0.983;entryDx=0;entryDy=0;entryPerimeter=0;endArrow=none;endFill=0;" parent="1" source="TIXlhMu91rHj0SqQOW6h-139" target="TIXlhMu91rHj0SqQOW6h-51" edge="1">
          <mxGeometry relative="1" as="geometry" />
        </mxCell>
        <mxCell id="TIXlhMu91rHj0SqQOW6h-139" value="Telefono" style="ellipse;shape=doubleEllipse;margin=3;whiteSpace=wrap;html=1;align=center;" parent="1" vertex="1">
          <mxGeometry x="830" y="170" width="70" height="20" as="geometry" />
        </mxCell>
        <mxCell id="TIXlhMu91rHj0SqQOW6h-145" style="edgeStyle=orthogonalEdgeStyle;rounded=0;orthogonalLoop=1;jettySize=auto;html=1;exitX=1;exitY=0.5;exitDx=0;exitDy=0;entryX=1;entryY=0.75;entryDx=0;entryDy=0;endArrow=none;endFill=0;" parent="1" source="TIXlhMu91rHj0SqQOW6h-142" target="TIXlhMu91rHj0SqQOW6h-51" edge="1">
          <mxGeometry relative="1" as="geometry">
            <mxPoint x="940" y="120" as="targetPoint" />
            <Array as="points">
              <mxPoint x="950" y="325" />
              <mxPoint x="950" y="120" />
              <mxPoint x="820" y="120" />
            </Array>
          </mxGeometry>
        </mxCell>
        <mxCell id="TIXlhMu91rHj0SqQOW6h-147" value="1" style="edgeLabel;html=1;align=center;verticalAlign=middle;resizable=0;points=[];" parent="TIXlhMu91rHj0SqQOW6h-145" vertex="1" connectable="0">
          <mxGeometry x="0.8939" relative="1" as="geometry">
            <mxPoint as="offset" />
          </mxGeometry>
        </mxCell>
        <mxCell id="TIXlhMu91rHj0SqQOW6h-142" value="Cita a" style="shape=rhombus;perimeter=rhombusPerimeter;whiteSpace=wrap;html=1;align=center;" parent="1" vertex="1">
          <mxGeometry x="570" y="310" width="80" height="30" as="geometry" />
        </mxCell>
        <mxCell id="TIXlhMu91rHj0SqQOW6h-149" style="edgeStyle=orthogonalEdgeStyle;rounded=0;orthogonalLoop=1;jettySize=auto;html=1;exitX=0.5;exitY=0;exitDx=0;exitDy=0;entryX=1;entryY=1;entryDx=0;entryDy=0;endArrow=none;endFill=0;" parent="1" source="TIXlhMu91rHj0SqQOW6h-143" target="TIXlhMu91rHj0SqQOW6h-50" edge="1">
          <mxGeometry relative="1" as="geometry" />
        </mxCell>
        <mxCell id="TIXlhMu91rHj0SqQOW6h-150" value="n" style="edgeLabel;html=1;align=center;verticalAlign=middle;resizable=0;points=[];" parent="TIXlhMu91rHj0SqQOW6h-149" vertex="1" connectable="0">
          <mxGeometry x="0.8839" y="1" relative="1" as="geometry">
            <mxPoint as="offset" />
          </mxGeometry>
        </mxCell>
        <mxCell id="TIXlhMu91rHj0SqQOW6h-152" style="edgeStyle=orthogonalEdgeStyle;rounded=0;orthogonalLoop=1;jettySize=auto;html=1;exitX=1;exitY=0.5;exitDx=0;exitDy=0;entryX=1;entryY=0.75;entryDx=0;entryDy=0;" parent="1" source="TIXlhMu91rHj0SqQOW6h-143" target="TIXlhMu91rHj0SqQOW6h-51" edge="1">
          <mxGeometry relative="1" as="geometry">
            <mxPoint x="970" y="110" as="targetPoint" />
            <Array as="points">
              <mxPoint x="970" y="278" />
              <mxPoint x="970" y="125" />
            </Array>
          </mxGeometry>
        </mxCell>
        <mxCell id="TIXlhMu91rHj0SqQOW6h-153" value="n" style="edgeLabel;html=1;align=center;verticalAlign=middle;resizable=0;points=[];" parent="TIXlhMu91rHj0SqQOW6h-152" vertex="1" connectable="0">
          <mxGeometry x="0.9305" relative="1" as="geometry">
            <mxPoint as="offset" />
          </mxGeometry>
        </mxCell>
        <mxCell id="TIXlhMu91rHj0SqQOW6h-143" value="Manda avisos" style="shape=rhombus;perimeter=rhombusPerimeter;whiteSpace=wrap;html=1;align=center;" parent="1" vertex="1">
          <mxGeometry x="560" y="260" width="100" height="35" as="geometry" />
        </mxCell>
        <mxCell id="TIXlhMu91rHj0SqQOW6h-157" style="edgeStyle=orthogonalEdgeStyle;rounded=0;orthogonalLoop=1;jettySize=auto;html=1;exitX=0.5;exitY=1;exitDx=0;exitDy=0;entryX=0.25;entryY=0;entryDx=0;entryDy=0;endArrow=none;endFill=0;" parent="1" source="TIXlhMu91rHj0SqQOW6h-155" target="TIXlhMu91rHj0SqQOW6h-50" edge="1">
          <mxGeometry relative="1" as="geometry" />
        </mxCell>
        <mxCell id="TIXlhMu91rHj0SqQOW6h-155" value="Matricula" style="ellipse;whiteSpace=wrap;html=1;align=center;fontStyle=4;" parent="1" vertex="1">
          <mxGeometry x="290" y="27.5" width="70" height="22.5" as="geometry" />
        </mxCell>
        <mxCell id="TIXlhMu91rHj0SqQOW6h-162" style="edgeStyle=orthogonalEdgeStyle;rounded=0;orthogonalLoop=1;jettySize=auto;html=1;entryX=1;entryY=0.75;entryDx=0;entryDy=0;endArrow=none;endFill=0;" parent="1" source="TIXlhMu91rHj0SqQOW6h-160" target="TIXlhMu91rHj0SqQOW6h-161" edge="1">
          <mxGeometry relative="1" as="geometry" />
        </mxCell>
        <mxCell id="TIXlhMu91rHj0SqQOW6h-160" value="Salón" style="ellipse;whiteSpace=wrap;html=1;align=center;dashed=1;" parent="1" vertex="1">
          <mxGeometry x="870" y="-95" width="60" height="20" as="geometry" />
        </mxCell>
        <mxCell id="TIXlhMu91rHj0SqQOW6h-161" value="Grupo" style="shape=ext;margin=3;double=1;whiteSpace=wrap;html=1;align=center;" parent="1" vertex="1">
          <mxGeometry x="780" y="-155" width="100" height="40" as="geometry" />
        </mxCell>
        <mxCell id="TIXlhMu91rHj0SqQOW6h-172" style="edgeStyle=orthogonalEdgeStyle;rounded=0;orthogonalLoop=1;jettySize=auto;html=1;entryX=1;entryY=0.25;entryDx=0;entryDy=0;endArrow=none;endFill=0;" parent="1" source="TIXlhMu91rHj0SqQOW6h-171" target="TIXlhMu91rHj0SqQOW6h-161" edge="1">
          <mxGeometry relative="1" as="geometry" />
        </mxCell>
        <mxCell id="TIXlhMu91rHj0SqQOW6h-171" value="Id_grupo" style="ellipse;whiteSpace=wrap;html=1;align=center;fontStyle=4;" parent="1" vertex="1">
          <mxGeometry x="930" y="-210" width="100" height="40" as="geometry" />
        </mxCell>
        <mxCell id="TIXlhMu91rHj0SqQOW6h-174" style="edgeStyle=orthogonalEdgeStyle;rounded=0;orthogonalLoop=1;jettySize=auto;html=1;entryX=0.5;entryY=0;entryDx=0;entryDy=0;endArrow=none;endFill=0;" parent="1" source="TIXlhMu91rHj0SqQOW6h-173" target="TIXlhMu91rHj0SqQOW6h-11" edge="1">
          <mxGeometry relative="1" as="geometry" />
        </mxCell>
        <mxCell id="TIXlhMu91rHj0SqQOW6h-173" value="Id_tutor" style="ellipse;whiteSpace=wrap;html=1;align=center;fontStyle=4;" parent="1" vertex="1">
          <mxGeometry x="140" y="-320" width="100" height="30" as="geometry" />
        </mxCell>
        <mxCell id="9lPJi64kFH8kCg1elTZz-3" style="edgeStyle=orthogonalEdgeStyle;rounded=0;sketch=1;hachureGap=4;jiggle=2;curveFitting=1;orthogonalLoop=1;jettySize=auto;html=1;exitX=0.5;exitY=0;exitDx=0;exitDy=0;entryX=1;entryY=0.25;entryDx=0;entryDy=0;fontFamily=Architects Daughter;fontSource=https%3A%2F%2Ffonts.googleapis.com%2Fcss%3Ffamily%3DArchitects%2BDaughter;fontSize=16;" edge="1" parent="1" source="9lPJi64kFH8kCg1elTZz-1" target="TIXlhMu91rHj0SqQOW6h-53">
          <mxGeometry relative="1" as="geometry" />
        </mxCell>
        <mxCell id="9lPJi64kFH8kCg1elTZz-1" value="CONTRASEÑA" style="ellipse;whiteSpace=wrap;html=1;sketch=1;hachureGap=4;jiggle=2;curveFitting=1;fontFamily=Architects Daughter;fontSource=https%3A%2F%2Ffonts.googleapis.com%2Fcss%3Ffamily%3DArchitects%2BDaughter;fontSize=20;" vertex="1" parent="1">
          <mxGeometry x="560" y="415" width="120" height="30" as="geometry" />
        </mxCell>
      </root>
    </mxGraphModel>
  </diagram>
</mxfile>
